<svg xmlns="http://www.w3.org/2000/svg" xmlns:xlink="http://www.w3.org/1999/xlink" width="24" height="24" viewBox="0 0 24 24"><defs><style>.a{fill:#8c98db;}.b{clip-path:url(#a);}</style><clipPath id="a"><path class="a" d="M0,0H24V24H0Z"/></clipPath></defs><g class="b"><path class="a" d="M22.675,0H1.325A1.325,1.325,0,0,0,0,1.325V22.676A1.325,1.325,0,0,0,1.325,24H12.82V14.706H9.692V11.084H12.82V8.413c0-3.1,1.893-4.788,4.659-4.788a25.657,25.657,0,0,1,2.8.143v3.24H18.356c-1.5,0-1.8.715-1.8,1.763v2.313h3.587l-.467,3.622h-3.12V24h6.116A1.324,1.324,0,0,0,24,22.675V1.325A1.325,1.325,0,0,0,22.675,0Z"/></g></svg>