<svg xmlns="http://www.w3.org/2000/svg" width="20" height="20" viewBox="0 0 20 20"><path d="M18.667,6.167a4.179,4.179,0,0,1,4.167,4.167v8.333a4.179,4.179,0,0,1-4.167,4.167H10.333a4.179,4.179,0,0,1-4.167-4.167V10.333a4.179,4.179,0,0,1,4.167-4.167h8.333m0-1.667H10.333A5.85,5.85,0,0,0,4.5,10.333v8.333A5.85,5.85,0,0,0,10.333,24.5h8.333A5.85,5.85,0,0,0,24.5,18.667V10.333A5.85,5.85,0,0,0,18.667,4.5Z" transform="translate(-4.5 -4.5)" fill="#fff"/><path d="M25.313,12.375A1.688,1.688,0,1,1,27,10.688,1.683,1.683,0,0,1,25.313,12.375Z" transform="translate(-10.167 -5.833)" fill="#fff"/><path d="M16,12.833A3.167,3.167,0,1,1,12.833,16,3.17,3.17,0,0,1,16,12.833m0-1.583A4.75,4.75,0,1,0,20.75,16,4.751,4.751,0,0,0,16,11.25Z" transform="translate(-6 -6)" fill="#fff"/></svg>