<svg xmlns="http://www.w3.org/2000/svg" width="24" height="19.53" viewBox="0 0 24 19.53"><path d="M25.413,6.814a9.955,9.955,0,0,1-2.828.778,4.941,4.941,0,0,0,2.167-2.726,9.784,9.784,0,0,1-3.128,1.2,4.922,4.922,0,0,0-8.519,3.367,4.821,4.821,0,0,0,.127,1.124A13.954,13.954,0,0,1,3.081,5.4a4.934,4.934,0,0,0,1.531,6.581,4.809,4.809,0,0,1-2.238-.615v.061a4.928,4.928,0,0,0,3.952,4.832,4.956,4.956,0,0,1-1.3.173A4.645,4.645,0,0,1,4.1,16.34a4.932,4.932,0,0,0,4.6,3.423,9.872,9.872,0,0,1-6.118,2.111A9.981,9.981,0,0,1,1.413,21.8,13.763,13.763,0,0,0,8.95,24.03,13.926,13.926,0,0,0,22.972,10c0-.214-.005-.427-.015-.636A10.023,10.023,0,0,0,25.413,6.814Z" transform="translate(-1.413 -4.5)" fill="#fff"/></svg>