<svg xmlns="http://www.w3.org/2000/svg" width="24" height="24" viewBox="0 0 24 24"><defs><style>.a{fill:#8c98db;fill-rule:evenodd;}</style></defs><path class="a" d="M12,0A12,12,0,0,0,7.627,23.174a11.472,11.472,0,0,1,.042-3.441c.218-.937,1.407-5.965,1.407-5.965a4.334,4.334,0,0,1-.359-1.782c0-1.668.967-2.914,2.171-2.914a1.508,1.508,0,0,1,1.518,1.69,24.127,24.127,0,0,1-.994,3.995,1.743,1.743,0,0,0,1.777,2.169c2.133,0,3.772-2.249,3.772-5.495a4.737,4.737,0,0,0-5.012-4.882,5.194,5.194,0,0,0-5.418,5.207,4.662,4.662,0,0,0,.893,2.738.36.36,0,0,1,.083.345L7.174,16.2c-.053.22-.174.267-.4.161-1.5-.7-2.436-2.889-2.436-4.649,0-3.785,2.75-7.262,7.929-7.262,4.163,0,7.4,2.967,7.4,6.931,0,4.136-2.607,7.464-6.227,7.464a3.209,3.209,0,0,1-2.75-1.378l-.748,2.853a13.352,13.352,0,0,1-1.492,3.146A12,12,0,1,0,12,0Z"/></svg>