<svg xmlns="http://www.w3.org/2000/svg" xmlns:xlink="http://www.w3.org/1999/xlink" width="24" height="24" viewBox="0 0 24 24"><defs><style>.a{fill:#8c98db;}.b{clip-path:url(#a);}</style><clipPath id="a"><path class="a" d="M0,0H24V24H0Z"/></clipPath></defs><g class="b"><path class="a" d="M24,4.557a9.83,9.83,0,0,1-2.828.775,4.932,4.932,0,0,0,2.165-2.724A9.864,9.864,0,0,1,20.21,3.8a4.927,4.927,0,0,0-8.391,4.49A13.978,13.978,0,0,1,1.671,3.149,4.93,4.93,0,0,0,3.194,9.723,4.9,4.9,0,0,1,.965,9.107,4.927,4.927,0,0,0,4.914,14a4.935,4.935,0,0,1-2.224.084A4.928,4.928,0,0,0,7.29,17.5,9.9,9.9,0,0,1,0,19.54a13.94,13.94,0,0,0,7.548,2.212A13.925,13.925,0,0,0,21.543,7.106,10.025,10.025,0,0,0,24,4.557Z"/></g></svg>