<svg xmlns="http://www.w3.org/2000/svg" width="24" height="18.003" viewBox="0 0 24 18.003"><path d="M23.844,8.476a3.644,3.644,0,0,0-3.469-3.807c-2.6-.122-5.246-.169-7.951-.169H11.58c-2.7,0-5.354.047-7.951.169A3.652,3.652,0,0,0,.164,8.485C.047,10.154,0,11.823,0,13.492S.047,16.83.159,18.5a3.657,3.657,0,0,0,3.465,3.821c2.729.127,5.527.183,8.373.178s5.64-.047,8.373-.178A3.657,3.657,0,0,0,23.839,18.5c.113-1.674.164-3.343.159-5.016S23.956,10.149,23.844,8.476ZM9.7,18.091V8.879l6.8,4.6Z" transform="translate(0 -4.5)" fill="#fff"/></svg>